<svg width="31" height="30" viewBox="0 0 31 30" fill="none" xmlns="http://www.w3.org/2000/svg">
<path fill-rule="evenodd" clip-rule="evenodd" d="M16.7826 7.78106C16.6659 7.54697 16.4837 7.34954 16.2569 7.2114C16.03 7.07327 15.7677 7 15.5 7C15.2323 7 14.97 7.07327 14.7431 7.2114C14.5163 7.34954 14.3341 7.54697 14.2174 7.78106L12.0513 12.1361L7.21352 12.8376C6.95243 12.8757 6.70736 12.9835 6.50564 13.149C6.30392 13.3145 6.15349 13.5312 6.07112 13.7749C5.98876 14.0186 5.97769 14.2798 6.03917 14.5292C6.10064 14.7787 6.23223 15.0067 6.41927 15.1877L9.93451 18.5846L9.10416 23.3845C9.05969 23.6399 9.08988 23.9024 9.19128 24.142C9.29268 24.3816 9.46124 24.5887 9.67778 24.7399C9.89432 24.891 10.1502 24.9801 10.4162 24.997C10.6823 25.014 10.9479 24.958 11.1829 24.8356L15.5 22.5814L19.8171 24.8337C20.0519 24.956 20.3173 25.0119 20.5832 24.995C20.849 24.9782 21.1047 24.8892 21.3212 24.7383C21.5376 24.5874 21.7062 24.3806 21.8078 24.1413C21.9094 23.902 21.9399 23.6398 21.8958 23.3845L21.0655 18.5809L24.5807 15.1859C24.7678 15.0048 24.8994 14.7769 24.9608 14.5274C25.0223 14.2779 25.0112 14.0168 24.9289 13.7731C24.8465 13.5293 24.6961 13.3126 24.4944 13.1471C24.2926 12.9816 24.0476 12.8738 23.7865 12.8358L18.9506 12.1342L16.7845 7.77922L16.7826 7.78106ZM14.2877 14.0007L15.5 11.5638L16.7123 14.0007C16.8135 14.2037 16.9642 14.3796 17.1513 14.5131C17.3384 14.6466 17.5562 14.7337 17.7859 14.7668L20.5581 15.1693L18.5326 17.1243C18.3713 17.2805 18.251 17.472 18.1815 17.6827C18.1121 17.8934 18.0957 18.1172 18.1336 18.3354L18.6029 21.0602L16.1745 19.7938C15.9672 19.6855 15.7354 19.6289 15.5 19.6289C15.2646 19.6289 15.0328 19.6855 14.8255 19.7938L12.3971 21.0602L12.8683 18.3354C12.906 18.1171 12.8892 17.8932 12.8195 17.6824C12.7497 17.4717 12.629 17.2803 12.4674 17.1243L10.4418 15.1674L13.216 14.7668C13.4453 14.7334 13.6628 14.6462 13.8496 14.5127C14.0363 14.3792 14.1867 14.2034 14.2877 14.0007Z" fill="black"/>
<path fill-rule="evenodd" clip-rule="evenodd" d="M23.25 1.40625C23.25 1.03329 23.0969 0.675604 22.8244 0.411881C22.5519 0.148158 22.1823 0 21.7969 0C21.4115 0 21.0419 0.148158 20.7694 0.411881C20.4968 0.675604 20.3438 1.03329 20.3438 1.40625V1.875H10.6562V1.40625C10.6562 1.03329 10.5032 0.675604 10.2306 0.411881C9.95813 0.148158 9.58852 0 9.20312 0C8.81773 0 8.44812 0.148158 8.17561 0.411881C7.9031 0.675604 7.75 1.03329 7.75 1.40625V1.875H4.35938C3.2032 1.875 2.09437 2.31947 1.27683 3.11064C0.45929 3.90181 0 4.97487 0 6.09375L0 25.7812C0 26.9001 0.45929 27.9732 1.27683 28.7644C2.09437 29.5555 3.2032 30 4.35938 30H26.6406C27.7968 30 28.9056 29.5555 29.7232 28.7644C30.5407 27.9732 31 26.9001 31 25.7812V6.09375C31 4.97487 30.5407 3.90181 29.7232 3.11064C28.9056 2.31947 27.7968 1.875 26.6406 1.875H23.25V1.40625ZM7.75 6.09375V4.6875H4.35938C3.97398 4.6875 3.60437 4.83566 3.33186 5.09938C3.05935 5.3631 2.90625 5.72079 2.90625 6.09375V25.7812C2.90625 26.5575 3.55725 27.1875 4.35938 27.1875H26.6406C27.026 27.1875 27.3956 27.0393 27.6681 26.7756C27.9407 26.5119 28.0938 26.1542 28.0938 25.7812V6.09375C28.0938 5.72079 27.9407 5.3631 27.6681 5.09938C27.3956 4.83566 27.026 4.6875 26.6406 4.6875H23.25V6.09375C23.25 6.46671 23.0969 6.8244 22.8244 7.08812C22.5519 7.35184 22.1823 7.5 21.7969 7.5C21.4115 7.5 21.0419 7.35184 20.7694 7.08812C20.4968 6.8244 20.3438 6.46671 20.3438 6.09375V4.6875H10.6562V6.09375C10.6562 6.46671 10.5032 6.8244 10.2306 7.08812C9.95813 7.35184 9.58852 7.5 9.20312 7.5C8.81773 7.5 8.44812 7.35184 8.17561 7.08812C7.9031 6.8244 7.75 6.46671 7.75 6.09375Z" fill="black"/>
</svg>
