<svg width="26" height="19" viewBox="0 0 26 19" fill="none" xmlns="http://www.w3.org/2000/svg">
<path d="M20.8219 4.85712C20.665 7.03585 19.0487 8.71424 17.2862 8.71424C15.5238 8.71424 13.9048 7.03639 13.7505 4.85712C13.5898 2.59053 15.1632 1 17.2862 1C19.4093 1 20.9826 2.63178 20.8219 4.85712Z" stroke="black" stroke-width="1.7" stroke-linecap="round" stroke-linejoin="round"/>
<path d="M17.2858 12.1426C13.7946 12.1426 10.4373 13.8767 9.59621 17.2538C9.48478 17.7006 9.76496 18.1425 10.2241 18.1425H24.3481C24.8072 18.1425 25.0858 17.7006 24.9759 17.2538C24.1349 13.8226 20.7776 12.1426 17.2858 12.1426Z" stroke="black" stroke-width="1.7" stroke-miterlimit="10"/>
<path d="M10.0004 5.81778C9.87505 7.55777 8.56899 8.92811 7.16114 8.92811C5.75329 8.92811 4.44508 7.5583 4.32187 5.81778C4.19384 4.00761 5.46508 2.71387 7.16114 2.71387C8.8572 2.71387 10.1284 4.04082 10.0004 5.81778Z" stroke="black" stroke-width="1.7" stroke-linecap="round" stroke-linejoin="round"/>
<path d="M10.3219 12.2501C9.35494 11.8071 8.28994 11.6367 7.1612 11.6367C4.3755 11.6367 1.69159 13.0215 1.01927 15.7188C0.930882 16.0756 1.15481 16.4287 1.52124 16.4287H7.5362" stroke="black" stroke-width="1.7" stroke-miterlimit="10" stroke-linecap="round"/>
</svg>
