<svg width="24" height="25" viewBox="0 0 24 25" fill="none" xmlns="http://www.w3.org/2000/svg">
<path d="M12 0.864506L12.52 0.256506C12.3751 0.132562 12.1907 0.0644531 12 0.0644531C11.8093 0.0644531 11.6249 0.132562 11.48 0.256506L12 0.864506ZM0.8 10.4645L0.28 9.85651L0 10.0965V10.4645H0.8ZM8.8 23.2645V24.0645C9.01217 24.0645 9.21566 23.9802 9.36569 23.8302C9.51571 23.6802 9.6 23.4767 9.6 23.2645H8.8ZM15.2 23.2645H14.4C14.4 23.4767 14.4843 23.6802 14.6343 23.8302C14.7843 23.9802 14.9878 24.0645 15.2 24.0645V23.2645ZM23.2 10.4645H24V10.0965L23.72 9.85651L23.2 10.4645ZM2.4 24.0645H8.8V22.4645H2.4V24.0645ZM23.72 9.85651L12.52 0.256506L11.48 1.47251L22.68 11.0725L23.72 9.85651ZM11.48 0.256506L0.28 9.85651L1.32 11.0725L12.52 1.47251L11.48 0.256506ZM9.6 23.2645V18.4645H8V23.2645H9.6ZM14.4 18.4645V23.2645H16V18.4645H14.4ZM15.2 24.0645H21.6V22.4645H15.2V24.0645ZM24 21.6645V10.4645H22.4V21.6645H24ZM0 10.4645V21.6645H1.6V10.4645H0ZM12 16.0645C12.6365 16.0645 13.247 16.3174 13.6971 16.7674C14.1471 17.2175 14.4 17.828 14.4 18.4645H16C16 17.4036 15.5786 16.3862 14.8284 15.6361C14.0783 14.8859 13.0609 14.4645 12 14.4645V16.0645ZM12 14.4645C10.9391 14.4645 9.92172 14.8859 9.17157 15.6361C8.42143 16.3862 8 17.4036 8 18.4645H9.6C9.6 17.828 9.85286 17.2175 10.3029 16.7674C10.753 16.3174 11.3635 16.0645 12 16.0645V14.4645ZM21.6 24.0645C22.2365 24.0645 22.847 23.8116 23.2971 23.3616C23.7471 22.9115 24 22.301 24 21.6645H22.4C22.4 21.8767 22.3157 22.0802 22.1657 22.2302C22.0157 22.3802 21.8122 22.4645 21.6 22.4645V24.0645ZM2.4 22.4645C2.18783 22.4645 1.98434 22.3802 1.83431 22.2302C1.68429 22.0802 1.6 21.8767 1.6 21.6645H0C0 22.301 0.252856 22.9115 0.702944 23.3616C1.15303 23.8116 1.76348 24.0645 2.4 24.0645V22.4645Z" fill="black"/>
</svg>
